<svg width="20" height="20" viewBox="0 0 20 20" fill="none" xmlns="http://www.w3.org/2000/svg">
<path d="M6.28865 16.2328C6.63081 16.2328 6.90891 16.5171 6.90891 16.8669C6.90891 17.2166 6.63081 17.5 6.28865 17.5C5.94649 17.5 5.66919 17.2166 5.66919 16.8669C5.66919 16.5171 5.94649 16.2328 6.28865 16.2328Z" fill="#0D0417" stroke="#0D0417" stroke-linecap="round" stroke-linejoin="round"/>
<path d="M15.412 16.2328C15.7542 16.2328 16.0323 16.5171 16.0323 16.8669C16.0323 17.2166 15.7542 17.5 15.412 17.5C15.0699 17.5 14.7917 17.2166 14.7917 16.8669C14.7917 16.5171 15.0699 16.2328 15.412 16.2328Z" fill="#0D0417" stroke="#0D0417" stroke-linecap="round" stroke-linejoin="round"/>
<path d="M2.5 2.5L4.18648 2.79835L4.96729 12.3067C5.03053 13.0816 5.66377 13.6767 6.42431 13.6767H15.2718C15.9983 13.6767 16.6145 13.1314 16.7191 12.3954L17.4886 6.96039C17.5834 6.28993 17.0751 5.6899 16.4126 5.6899H4.45729" stroke="#0D0417" stroke-linecap="round" stroke-linejoin="round"/>
<path d="M11.7234 8.753H13.9718" stroke="#0D0417" stroke-linecap="round" stroke-linejoin="round"/>
</svg>
