<svg width="20" height="20" viewBox="0 0 20 20" fill="none" xmlns="http://www.w3.org/2000/svg">
<path fill-rule="evenodd" clip-rule="evenodd" d="M9.81761 17.3781C8.00876 16.2649 6.32602 14.9547 4.79951 13.471C3.7263 12.4025 2.90927 11.0998 2.41101 9.66282C1.51438 6.87525 2.56171 3.68402 5.4927 2.7396C7.03311 2.2437 8.71547 2.52713 10.0135 3.50123C11.312 2.52831 12.9938 2.24498 14.5343 2.7396C17.4653 3.68402 18.5202 6.87525 17.6235 9.66282C17.1253 11.0998 16.3083 12.4025 15.235 13.471C13.7085 14.9547 12.0258 16.2649 10.2169 17.3781L10.021 17.5L9.81761 17.3781Z" stroke="#DE012C" stroke-linecap="round" stroke-linejoin="round"/>
<path d="M13.1328 5.8775C14.0206 6.16109 14.6513 6.95809 14.7302 7.89582" stroke="#DE012C" stroke-linecap="round" stroke-linejoin="round"/>
</svg>
